<svg width="34" height="34" viewBox="0 0 34 34" fill="none" xmlns="http://www.w3.org/2000/svg">
<g clip-path="url(#clip0_72_4008)">
<path d="M16.9 0C7.56645 0 0 7.56636 0 16.8998C0 26.2338 7.56645 33.7996 16.9 33.7996C26.2341 33.7996 33.8 26.2338 33.8 16.8998C33.8 7.56636 26.2341 0 16.9 0ZM16.9 31.7204C8.74628 31.7204 2.1125 25.0534 2.1125 16.8997C2.1125 8.74611 8.74628 2.11241 16.9 2.11241C25.0537 2.11241 31.6875 8.74615 31.6875 16.8997C31.6875 25.0533 25.0537 31.7204 16.9 31.7204ZM23.6447 10.7161L13.7291 20.6938L9.26381 16.2286C8.85134 15.8161 8.18274 15.8161 7.76974 16.2286C7.35728 16.641 7.35728 17.3096 7.76974 17.7221L12.9977 22.9505C13.4101 23.3624 14.0787 23.3624 14.4917 22.9505C14.5392 22.9029 14.5799 22.8512 14.6169 22.7973L25.1393 12.2101C25.5512 11.7976 25.5512 11.129 25.1393 10.7161C24.7263 10.3036 24.0577 10.3036 23.6447 10.7161Z" fill="#3D8E41"/>
</g>
<defs>
<clipPath id="clip0_72_4008">
<rect width="33.8" height="33.7996" fill="white"/>
</clipPath>
</defs>
</svg>
