<svg width="16" height="18" viewBox="0 0 16 18" fill="none" xmlns="http://www.w3.org/2000/svg">
<path d="M4.73059 1.38086V2.11914H3.21887C2.91418 2.11914 2.62415 2.17773 2.34875 2.29492C2.07336 2.41211 1.83606 2.57617 1.63684 2.78711C1.43762 2.98633 1.27649 3.22363 1.15344 3.49902C1.0304 3.77441 0.968872 4.06445 0.968872 4.36914V14.8809C0.968872 15.1855 1.02747 15.4756 1.14465 15.751C1.26184 16.0264 1.4259 16.2637 1.63684 16.4629C1.83606 16.6621 2.07336 16.8232 2.34875 16.9463C2.62415 17.0693 2.91418 17.1309 3.21887 17.1309H13.7306C14.0353 17.1309 14.3253 17.0723 14.6007 16.9551C14.8761 16.8379 15.1134 16.6738 15.3126 16.4629C15.5118 16.2637 15.673 16.0264 15.796 15.751C15.9191 15.4756 15.9806 15.1855 15.9806 14.8809V4.36914C15.9806 4.06445 15.922 3.77441 15.8048 3.49902C15.6876 3.22363 15.5236 2.98633 15.3126 2.78711C15.1134 2.58789 14.8761 2.42676 14.6007 2.30371C14.3253 2.18066 14.0353 2.11914 13.7306 2.11914H12.2189V1.38086C12.2189 1.16992 12.1456 0.991211 11.9991 0.844727C11.8527 0.698242 11.6798 0.625 11.4806 0.625C11.2697 0.625 11.0909 0.698242 10.9445 0.844727C10.798 0.991211 10.7247 1.16992 10.7247 1.38086V2.11914H6.22473V1.38086C6.22473 1.16992 6.15149 0.991211 6.005 0.844727C5.85852 0.698242 5.67981 0.625 5.46887 0.625C5.26965 0.625 5.0968 0.698242 4.95032 0.844727C4.80383 0.991211 4.73059 1.16992 4.73059 1.38086ZM14.4689 6.61914H2.48059V4.36914C2.48059 4.27539 2.49817 4.18164 2.53333 4.08789C2.56848 3.99414 2.62122 3.91211 2.69153 3.8418C2.76184 3.77148 2.84094 3.71875 2.92883 3.68359C3.01672 3.64844 3.1134 3.63086 3.21887 3.63086H4.73059V4.36914C4.73059 4.58008 4.80383 4.75879 4.95032 4.90527C5.0968 5.05176 5.26965 5.125 5.46887 5.125C5.67981 5.125 5.85852 5.05176 6.005 4.90527C6.15149 4.75879 6.22473 4.58008 6.22473 4.36914V3.63086H10.7247V4.36914C10.7247 4.58008 10.798 4.75879 10.9445 4.90527C11.0909 5.05176 11.2697 5.125 11.4806 5.125C11.6798 5.125 11.8527 5.05176 11.9991 4.90527C12.1456 4.75879 12.2189 4.58008 12.2189 4.36914V3.63086H13.7306C13.8243 3.63086 13.9181 3.64844 14.0118 3.68359C14.1056 3.71875 14.1876 3.77148 14.2579 3.8418C14.3282 3.91211 14.381 3.99414 14.4161 4.08789C14.4513 4.18164 14.4689 4.27539 14.4689 4.36914V6.61914ZM2.48059 8.13086H14.4689V14.8809C14.4689 14.9746 14.4513 15.0684 14.4161 15.1621C14.381 15.2559 14.3282 15.3379 14.2579 15.4082C14.1876 15.4785 14.1085 15.5312 14.0206 15.5664C13.9327 15.6016 13.8361 15.6191 13.7306 15.6191H3.21887C3.12512 15.6191 3.03137 15.6016 2.93762 15.5664C2.84387 15.5312 2.76184 15.4785 2.69153 15.4082C2.62122 15.3379 2.56848 15.2559 2.53333 15.1621C2.49817 15.0684 2.48059 14.9746 2.48059 14.8809V8.13086Z" fill="#707070"/>
</svg>
