<svg width="19" height="19" viewBox="0 0 19 19" fill="none" xmlns="http://www.w3.org/2000/svg">
<path d="M17.3124 1.64549C16.7154 1.07242 15.9057 0.750488 15.0614 0.750488C14.2171 0.750488 13.4075 1.07242 12.8104 1.64549L1.55196 12.4555C1.22364 12.7705 0.997112 13.1698 0.899621 13.6055L0.0317825 17.493C0.00889629 17.5951 0.0130242 17.7011 0.0437891 17.8012C0.074554 17.9014 0.130975 17.9926 0.207898 18.0664C0.28482 18.1403 0.379792 18.1944 0.484136 18.224C0.58848 18.2535 0.69887 18.2575 0.80522 18.2355L4.8547 17.4024C5.30852 17.3088 5.7245 17.0913 6.05262 16.7761L17.3124 5.96673C17.9091 5.39362 18.2443 4.61645 18.2443 3.80611C18.2443 2.99577 17.9091 2.21861 17.3124 1.64549ZM13.7317 2.52924C14.0876 2.20605 14.5609 2.02892 15.0508 2.03551C15.5407 2.0421 16.0086 2.23189 16.355 2.56453C16.7014 2.89716 16.899 3.3464 16.9058 3.81672C16.9125 4.28703 16.7279 4.74132 16.3912 5.08299L15.8052 5.64548L13.1451 3.09236L13.7317 2.52924ZM12.2238 3.97611L14.884 6.52986L5.13269 15.893C4.9818 16.0378 4.79053 16.1376 4.58191 16.1805L1.51486 16.8117L2.17241 13.868C2.21706 13.6677 2.32106 13.4841 2.47189 13.3392L12.2238 3.97611Z" fill="#848484"/>
</svg>
