<svg width="19" height="19" viewBox="0 0 19 19" fill="none" xmlns="http://www.w3.org/2000/svg">
<g clip-path="url(#clip0_72_3969)">
<path d="M15.1224 6.50513L14.2203 7.40724C16.1373 8.42211 17.0394 10.0008 17.3777 10.7901C16.5883 11.805 14.2203 14.2858 9.48422 14.2858C8.69488 14.2858 8.13106 14.1731 7.45448 14.0603L6.55237 14.9624C7.45448 15.3007 8.46935 15.4135 9.48422 15.4135C15.9118 15.4135 18.6181 10.9029 18.6181 10.9029C18.6181 10.9029 17.9415 8.19658 15.1224 6.50513Z" fill="#848484"/>
<path d="M14.1075 8.64758C14.1075 8.30929 14.1075 7.971 13.9947 7.74547L8.58209 13.0454C8.92038 13.0454 9.25867 13.1581 9.59696 13.1581C12.0778 13.1581 14.1075 11.1284 14.1075 8.64758ZM17.8287 0.641357L12.8671 5.60296C11.965 5.37743 10.8374 5.15191 9.59696 5.15191C2.0418 5.15191 0.575867 10.9029 0.575867 10.9029C0.575867 10.9029 1.7035 12.9326 4.29707 14.2858L0.575867 17.8942V18.6835H1.36521L18.6181 1.4307V0.641357H17.8287ZM5.08641 13.3837C3.2822 12.5943 2.26732 11.3539 1.81627 10.7901C2.15456 10.0007 3.05667 8.30929 5.31194 7.18165C5.19918 7.63271 5.08641 8.08376 5.08641 8.64758C5.08641 9.88798 5.65023 11.1284 6.55234 11.9177L5.08641 13.3837ZM7.56722 9.54969L6.43958 9.77522C6.43958 9.77522 6.10129 9.2114 6.10129 8.42205C6.10129 7.51994 6.55234 6.7306 6.55234 6.7306C7.11616 6.39231 8.01827 6.39231 8.01827 6.39231C8.01827 6.39231 7.45445 7.40718 7.45445 8.30929C7.34169 9.09864 7.56722 9.54969 7.56722 9.54969Z" fill="#848484"/>
</g>
<defs>
<clipPath id="clip0_72_3969">
<rect width="18.0422" height="18.0422" fill="white" transform="translate(0.575867 0.641357)"/>
</clipPath>
</defs>
</svg>
