<svg width="11" height="15" viewBox="0 0 11 15" fill="none" xmlns="http://www.w3.org/2000/svg">
<path fill-rule="evenodd" clip-rule="evenodd" d="M3.50759 1.66667C3.50759 2.10869 3.33199 2.53262 3.01943 2.84518C2.70687 3.15774 2.28295 3.33333 1.84092 3.33333C1.39889 3.33333 0.974971 3.15774 0.662411 2.84518C0.34985 2.53262 0.174255 2.10869 0.174255 1.66667C0.174255 1.22464 0.34985 0.800716 0.662411 0.488155C0.974971 0.175595 1.39889 0 1.84092 0C2.28295 0 2.70687 0.175595 3.01943 0.488155C3.33199 0.800716 3.50759 1.22464 3.50759 1.66667ZM1.84092 9.16667C2.28295 9.16667 2.70687 8.99107 3.01943 8.67851C3.33199 8.36595 3.50759 7.94203 3.50759 7.5C3.50759 7.05797 3.33199 6.63405 3.01943 6.32149C2.70687 6.00893 2.28295 5.83333 1.84092 5.83333C1.39889 5.83333 0.974971 6.00893 0.662411 6.32149C0.34985 6.63405 0.174255 7.05797 0.174255 7.5C0.174255 7.94203 0.34985 8.36595 0.662411 8.67851C0.974971 8.99107 1.39889 9.16667 1.84092 9.16667ZM1.84092 15C2.28295 15 2.70687 14.8244 3.01943 14.5118C3.33199 14.1993 3.50759 13.7754 3.50759 13.3333C3.50759 12.8913 3.33199 12.4674 3.01943 12.1548C2.70687 11.8423 2.28295 11.6667 1.84092 11.6667C1.39889 11.6667 0.974971 11.8423 0.662411 12.1548C0.34985 12.4674 0.174255 12.8913 0.174255 13.3333C0.174255 13.7754 0.34985 14.1993 0.662411 14.5118C0.974971 14.8244 1.39889 15 1.84092 15ZM11.0076 1.66667C11.0076 2.10869 10.832 2.53262 10.5194 2.84518C10.2069 3.15774 9.78295 3.33333 9.34092 3.33333C8.89889 3.33333 8.47497 3.15774 8.16241 2.84518C7.84985 2.53262 7.67426 2.10869 7.67426 1.66667C7.67426 1.22464 7.84985 0.800716 8.16241 0.488155C8.47497 0.175595 8.89889 0 9.34092 0C9.78295 0 10.2069 0.175595 10.5194 0.488155C10.832 0.800716 11.0076 1.22464 11.0076 1.66667ZM9.34092 9.16667C9.78295 9.16667 10.2069 8.99107 10.5194 8.67851C10.832 8.36595 11.0076 7.94203 11.0076 7.5C11.0076 7.05797 10.832 6.63405 10.5194 6.32149C10.2069 6.00893 9.78295 5.83333 9.34092 5.83333C8.89889 5.83333 8.47497 6.00893 8.16241 6.32149C7.84985 6.63405 7.67426 7.05797 7.67426 7.5C7.67426 7.94203 7.84985 8.36595 8.16241 8.67851C8.47497 8.99107 8.89889 9.16667 9.34092 9.16667ZM9.34092 15C9.78295 15 10.2069 14.8244 10.5194 14.5118C10.832 14.1993 11.0076 13.7754 11.0076 13.3333C11.0076 12.8913 10.832 12.4674 10.5194 12.1548C10.2069 11.8423 9.78295 11.6667 9.34092 11.6667C8.89889 11.6667 8.47497 11.8423 8.16241 12.1548C7.84985 12.4674 7.67426 12.8913 7.67426 13.3333C7.67426 13.7754 7.84985 14.1993 8.16241 14.5118C8.47497 14.8244 8.89889 15 9.34092 15Z" fill="#404040"/>
</svg>
